<svg width="32" height="28" viewBox="0 0 32 28" fill="none"
    xmlns="http://www.w3.org/2000/svg">
    <path d="M24.2358 18.2341C21.6026 17.6243 19.5967 19.2036 17.8232 20.592C17.5343 20.8223 17.2342 21.0592 16.9229 21.2917C15.3705 22.4586 13.3488 22.7657 11.5188 22.1208C9.68213 21.4715 8.38923 20.0305 7.96954 18.1639C7.81836 17.4949 7.70554 16.7974 7.62431 16.0911H29.6556C30.9192 16.0911 31.9436 15.0953 31.9436 13.867V11.7065H7.63559C7.69877 11.0748 7.80031 10.4563 7.92667 9.85309C8.32379 7.96676 9.65506 6.43357 11.4918 5.75142C13.3375 5.06708 15.3141 5.33467 16.9116 6.48621C17.2997 6.76697 17.6675 7.04992 18.0195 7.3219C19.7366 8.64452 21.5123 10.0132 23.8657 9.66884C26.1627 9.33325 28.383 7.65749 31.9707 1.11456H28.7801C27.5865 1.11456 26.4719 1.7024 25.8198 2.67407C21.668 8.87264 22.3269 2.18714 15.041 1.11456C9.35496 0.278877 4.53984 4.1283 3.50867 8.97134C3.38006 9.57014 3.23565 10.533 3.14314 11.7065H2.27218C1.01763 11.7065 0 12.6957 0 13.9153V16.0911H3.12734C3.20406 17.0869 3.3417 18.1047 3.56283 19.0983C5.34762 27.0713 13.6218 26.9573 15.1697 26.6962C22.0381 25.5359 21.6748 19.0018 25.8491 25.1543C26.5035 26.1172 27.6113 26.6962 28.7982 26.6962H32C29.0193 21.2369 26.7201 18.811 24.2358 18.2341Z" fill="#101010"/>
</svg>
    