<svg width="20" height="20" viewBox="0 0 20 20" fill="none" xmlns="http://www.w3.org/2000/svg">
<path fill-rule="evenodd" clip-rule="evenodd" d="M10 4C10.4069 4 10.7368 4.3299 10.7368 4.73684V9.26316H15.2632C15.6701 9.26316 16 9.59305 16 10C16 10.4069 15.6701 10.7368 15.2632 10.7368H10.7368V15.2632C10.7368 15.6701 10.4069 16 10 16C9.59305 16 9.26316 15.6701 9.26316 15.2632V10.7368H4.73684C4.3299 10.7368 4 10.4069 4 10C4 9.59305 4.3299 9.26316 4.73684 9.26316H9.26316V4.73684C9.26316 4.3299 9.59305 4 10 4Z" fill="#101010"/>
</svg>
