<svg xmlns="http://www.w3.org/2000/svg" style="display: none;">

    <!-- Plus Icon -->
    <symbol fill="none"
        xmlns="http://www.w3.org/2000/svg" viewBox="0 0 16 16" id="plus">
        <path fill-rule="evenodd" clip-rule="evenodd" d="M7.99922 3.19995C8.32478 3.19995 8.58869 3.46387 8.58869 3.78942V7.41048H12.2097C12.5353 7.41048 12.7992 7.67439 12.7992 7.99995C12.7992 8.32551 12.5353 8.58943 12.2097 8.58943H8.58869V12.2105C8.58869 12.536 8.32478 12.8 7.99922 12.8C7.67366 12.8 7.40975 12.536 7.40975 12.2105V8.58943H3.78869C3.46314 8.58943 3.19922 8.32551 3.19922 7.99995C3.19922 7.67439 3.46314 7.41048 3.78869 7.41048H7.40975V3.78942C7.40975 3.46387 7.67366 3.19995 7.99922 3.19995Z" fill="currentColor"></path>
    </symbol>

    <!-- Arrow Up Right -->
    <symbol fill="none"
        xmlns="http://www.w3.org/2000/svg" viewBox="0 0 16 16" id="arrow-up-right">
        <path fill-rule="evenodd" clip-rule="evenodd" d="M4.99922 4.40005C4.99922 4.06868 5.26785 3.80005 5.59922 3.80005H11.5992C11.9306 3.80005 12.1992 4.06868 12.1992 4.40005V10.4C12.1992 10.7314 11.9306 11 11.5992 11C11.2678 11 10.9992 10.7314 10.9992 10.4V5.84858L5.22348 11.6243C4.98917 11.8586 4.60927 11.8586 4.37495 11.6243C4.14064 11.39 4.14064 11.0101 4.37495 10.7758L10.1507 5.00005H5.59922C5.26785 5.00005 4.99922 4.73142 4.99922 4.40005Z" fill="currentColor"></path>
    </symbol>

    <!-- Bell -->
    <symbol fill="none"
        xmlns="http://www.w3.org/2000/svg" viewBox="0 0 20 20" id="bell">
        <path fill-rule="evenodd" clip-rule="evenodd" d="M10.0024 3.27607C9.7377 3.27607 9.48387 3.38121 9.29671 3.56837C9.10956 3.75552 9.00442 4.00935 9.00442 4.27403C9.00442 4.52075 8.86217 4.74536 8.63913 4.85083C7.80441 5.24553 7.09283 5.85993 6.58066 6.62819C6.07117 7.39242 5.77811 8.28024 5.73244 9.19741V11.636C5.73244 11.6616 5.73089 11.6872 5.72781 11.7127C5.65425 12.3204 5.43902 12.9023 5.09946 13.4117C5.09047 13.4252 5.08141 13.4386 5.07226 13.4519H14.9325C14.9233 13.4386 14.9143 13.4252 14.9053 13.4117C14.5657 12.9023 14.3505 12.3204 14.2769 11.7127C14.2739 11.6872 14.2723 11.6616 14.2723 11.636V9.1974C14.2266 8.28023 13.9336 7.39242 13.4241 6.62819C12.9119 5.85993 12.2003 5.24553 11.3656 4.85083C11.1426 4.74536 11.0003 4.52075 11.0003 4.27403C11.0003 4.00935 10.8952 3.75552 10.708 3.56837C10.5209 3.38121 10.267 3.27607 10.0024 3.27607ZM11.8183 14.728H8.18642V14.908C8.18642 15.3896 8.37775 15.8515 8.7183 16.192C9.05886 16.5326 9.52076 16.7239 10.0024 16.7239C10.484 16.7239 10.9459 16.5326 11.2864 16.192C11.627 15.8515 11.8183 15.3896 11.8183 14.908V14.728ZM6.91035 14.728V14.908C6.91035 15.728 7.23612 16.5145 7.81598 17.0944C8.39585 17.6742 9.18232 18 10.0024 18C10.8224 18 11.6089 17.6742 12.1888 17.0944C12.7686 16.5145 13.0944 15.728 13.0944 14.908V14.728H16.5463C16.8361 14.728 17.0895 14.5327 17.1633 14.2525C17.2372 13.9723 17.1129 13.6776 16.8607 13.5348C16.5019 13.3316 16.1958 13.047 15.967 12.7039C15.745 12.3708 15.6019 11.9917 15.5484 11.5954V9.182C15.5484 9.17203 15.5482 9.16205 15.5477 9.15209C15.4935 7.99845 15.1265 6.8813 14.4859 5.92035C13.9134 5.0617 13.1418 4.3567 12.2392 3.86412C12.1566 3.41337 11.9389 2.99461 11.6104 2.66605C11.1839 2.23958 10.6055 2 10.0024 2C9.39927 2 8.82086 2.23958 8.39439 2.66605C8.06583 2.99461 7.8482 3.41336 7.76559 3.86412C6.86292 4.3567 6.09134 5.0617 5.5189 5.92035C4.87827 6.8813 4.51121 7.99845 4.45706 9.15209C4.4566 9.16205 4.45636 9.17203 4.45636 9.182V11.5954C4.40282 11.9917 4.25971 12.3708 4.0377 12.7039C3.80896 13.047 3.50285 13.3316 3.14401 13.5348C2.89186 13.6776 2.7676 13.9723 2.84143 14.2525C2.91526 14.5327 3.16864 14.728 3.45841 14.728H6.91035Z" fill="currentColor"></path>
    </symbol>

    <!-- Support -->

    <symbol fill="none"
        xmlns="http://www.w3.org/2000/svg" viewBox="0 0 20 20" id="support">
        <path fill-rule="evenodd" clip-rule="evenodd" d="M5.208 3.40659C6.77792 2.26269 8.70478 1.71713 10.6413 1.86821C12.5779 2.01928 14.3969 2.85707 15.7704 4.2306C17.1439 5.60412 17.9817 7.42306 18.1328 9.35964C18.2839 11.2962 17.7383 13.2231 16.5944 14.793C15.4505 16.3629 13.7835 17.4726 11.8938 17.9222C10.0949 18.3502 8.20691 18.1532 6.53871 17.3685L1.87627 18.949C1.64198 19.0284 1.38291 18.9679 1.20798 18.793C1.03304 18.6181 0.972581 18.359 1.052 18.1247L2.63249 13.4623C1.84782 11.7941 1.65081 9.90604 2.07876 8.10721C2.52834 6.21749 3.63808 4.55049 5.208 3.40659ZM10.5402 3.16427C8.91257 3.03729 7.29306 3.49583 5.97356 4.45727C4.65406 5.4187 3.72133 6.8198 3.34347 8.40809C2.9656 9.99638 3.16744 11.6674 3.91261 13.12C3.99288 13.2765 4.00631 13.4588 3.94986 13.6254L2.70589 17.2951L6.37559 16.0511C6.54214 15.9947 6.72446 16.0081 6.88094 16.0884C8.33358 16.8335 10.0046 17.0354 11.5929 16.6575C13.1812 16.2797 14.5823 15.3469 15.5437 14.0274C16.5052 12.7079 16.9637 11.0884 16.8367 9.46075C16.7097 7.83307 16.0056 6.30427 14.8511 5.14984C13.6967 3.9954 12.1679 3.29125 10.5402 3.16427Z" fill="currentColor"></path>
        <path d="M9.44013 10.1676C9.80875 9.5022 10.5173 9.10964 10.929 8.52081C11.3646 7.90324 11.1205 6.74951 9.88535 6.74951C9.0763 6.74951 8.67895 7.36228 8.51139 7.86973L7.27148 7.34792C7.61138 6.32822 8.53533 5.45215 9.88056 5.45215C11.0056 5.45215 11.7763 5.96439 12.1689 6.60589C12.504 7.15643 12.7003 8.1857 12.1833 8.95166C11.6088 9.79902 11.0582 10.0575 10.7614 10.6033C10.6417 10.8235 10.5939 10.9671 10.5939 11.6756H9.21034C9.20555 11.3022 9.14811 10.6942 9.44013 10.1676ZM10.8428 13.5906C10.8428 14.1172 10.412 14.548 9.88535 14.548C9.35875 14.548 8.92789 14.1172 8.92789 13.5906C8.92789 13.064 9.35875 12.6331 9.88535 12.6331C10.412 12.6331 10.8428 13.064 10.8428 13.5906Z" fill="currentColor"></path>
    </symbol>
</svg>